<svg xmlns="http://www.w3.org/2000/svg" width="205.917" height="31.167" viewBox="0 0 193.04687 29.21875"><g style="line-height:125%" font-weight="700" font-size="40" font-family="Roboto" letter-spacing="0" word-spacing="0" fill="#fff"><path d="M5.86 18.809v10.02H0V.39h11.094q3.203 0 5.625 1.171 2.441 1.172 3.75 3.34 1.308 2.149 1.308 4.903 0 4.18-2.87 6.601-2.852 2.403-7.91 2.403H5.858zm0-4.747h5.234q2.324 0 3.535-1.093 1.23-1.094 1.23-3.125 0-2.09-1.23-3.38-1.23-1.288-3.399-1.327H5.86v8.925zM36.309 18.418H31.64v10.41h-5.86V.391h10.567q5.039 0 7.773 2.246t2.734 6.347q0 2.91-1.27 4.864-1.25 1.933-3.808 3.086l6.153 11.62v.274h-6.29l-5.331-10.41zm-4.668-4.746h4.726q2.207 0 3.418-1.113 1.211-1.133 1.211-3.106 0-2.012-1.152-3.164-1.133-1.152-3.496-1.152H31.64v8.535zM74.688 15.254q0 4.2-1.485 7.363-1.484 3.164-4.258 4.883-2.754 1.719-6.328 1.719-3.535 0-6.308-1.7-2.774-1.699-4.297-4.843-1.524-3.164-1.543-7.266v-1.406q0-4.2 1.504-7.383 1.523-3.203 4.277-4.902Q59.023 0 62.578 0t6.309 1.719q2.773 1.699 4.277 4.902 1.523 3.184 1.523 7.363v1.27zm-5.938-1.29q0-4.472-1.602-6.796-1.601-2.324-4.57-2.324-2.95 0-4.55 2.304-1.602 2.286-1.622 6.72v1.386q0 4.355 1.602 6.758 1.601 2.402 4.61 2.402 2.948 0 4.53-2.305 1.582-2.324 1.602-6.757v-1.387zM90.45.39h5.859v19.688q0 2.715-1.211 4.805-1.192 2.07-3.38 3.203-2.187 1.133-4.94 1.133-4.512 0-7.032-2.285-2.52-2.305-2.52-6.504h5.899q0 2.09.879 3.086t2.773.996q1.68 0 2.676-1.153.996-1.152.996-3.28V.39zM118.438 16.504h-11.25v7.617h13.203v4.707h-19.063V.391h19.024v4.746h-13.164v6.777h11.25v4.59zM132.734 17.422l-3.046 3.281v8.125h-5.86V.391h5.86v12.89l2.578-3.535 7.246-9.355h7.207L136.62 13.027l10.39 15.801h-6.972l-7.305-11.406zM170.625 5.137h-8.71v23.691h-5.86V5.137h-8.594V.39h23.164v4.746zM191.094 16.504h-11.25v7.617h13.203v4.707h-19.063V.391h19.024v4.746h-13.164v6.777h11.25v4.59z" style="line-height:125%;-inkscape-font-specification:'Roboto, Bold';text-align:start"/></g></svg>