<svg xmlns="http://www.w3.org/2000/svg" width="231.542" height="31.167" viewBox="0 0 217.07031 29.21875"><g style="line-height:125%" font-weight="700" font-size="40" font-family="Roboto Condensed" letter-spacing="0" word-spacing="0" fill="#000"><path d="M5.742 18.828v10H0V.391h9.687q4.22 0 6.72 2.617 2.519 2.617 2.519 6.797t-2.48 6.601q-2.481 2.422-6.876 2.422H5.742zm0-4.785h3.945q1.641 0 2.54-1.074.898-1.074.898-3.125 0-2.13-.918-3.38-.918-1.269-2.46-1.288H5.741v8.867zM31.348 18.438h-2.852v10.39h-5.742V.391h9.16q4.316 0 6.66 2.246 2.363 2.226 2.363 6.347 0 5.664-4.12 7.93l4.98 11.64v.274h-6.172l-4.277-10.39zm-2.852-4.786h3.262q1.719 0 2.578-1.132.86-1.153.86-3.067 0-4.277-3.34-4.277h-3.36v8.476zM64.941 17.168q0 5.723-2.714 8.887-2.696 3.164-7.5 3.164-4.786 0-7.52-3.125-2.734-3.145-2.773-8.79v-4.863q0-5.859 2.714-9.14Q49.863 0 54.688 0q4.746 0 7.48 3.242 2.734 3.223 2.773 9.063v4.863zm-5.761-4.766q0-3.847-1.094-5.722-1.094-1.875-3.399-1.875-2.285 0-3.378 1.816-1.094 1.797-1.133 5.488v5.059q0 3.73 1.113 5.508 1.113 1.758 3.438 1.758 2.246 0 3.34-1.72 1.093-1.737 1.113-5.37v-4.942zM85.84 5.176h-7.031v23.652h-5.762V5.176h-6.914V.39H85.84v4.785zM108.613 17.168q0 5.723-2.715 8.887-2.695 3.164-7.5 3.164-4.785 0-7.52-3.125-2.733-3.145-2.773-8.79v-4.863q0-5.859 2.715-9.14Q93.535 0 98.36 0q4.745 0 7.48 3.242 2.734 3.223 2.773 9.063v4.863zm-5.761-4.766q0-3.847-1.094-5.722-1.094-1.875-3.399-1.875-2.285 0-3.379 1.816-1.093 1.797-1.132 5.488v5.059q0 3.73 1.113 5.508 1.113 1.758 3.437 1.758 2.247 0 3.34-1.72 1.094-1.737 1.114-5.37v-4.942zM129.512 5.176h-7.032v23.652h-5.761V5.176h-6.914V.39h19.707v4.785zM141.7 13.164L145.976.391h6.25l-7.618 18.125v10.312h-5.82V18.516L131.152.39h6.25l4.297 12.773zM160.586 18.828v10h-5.742V.391h9.687q4.219 0 6.719 2.617 2.52 2.617 2.52 6.797t-2.48 6.601q-2.481 2.422-6.876 2.422h-3.828zm0-4.785h3.945q1.64 0 2.54-1.074.898-1.074.898-3.125 0-2.13-.918-3.38-.918-1.269-2.461-1.288h-4.004v8.867zM192.266 16.523h-8.946v7.54h10.586v4.765h-16.328V.391h16.29v4.785H183.32v6.719h8.946v4.628zM217.07 28.828h-5.742l-8.398-18.652v18.652h-5.743V.391h5.743l8.418 18.672V.39h5.722v28.437z" style="line-height:125%;-inkscape-font-specification:'Roboto Condensed, Bold';text-align:start"/></g></svg>